<svg width="20" height="20" viewBox="0 0 20 20" fill="none" xmlns="http://www.w3.org/2000/svg">
<path d="M20 10C20 15.5228 15.5228 20 10 20C4.47715 20 0 15.5228 0 10C0 4.47715 4.47715 0 10 0C15.5228 0 20 4.47715 20 10Z" fill="#BBBBBB"/>
<path d="M7.67504 4.4375C7.08323 4.46288 6.66896 4.56441 6.31387 4.69978C5.94188 4.84362 5.63752 5.03822 5.32471 5.35127C5.01189 5.66432 4.8259 5.97737 4.68217 6.34118C4.5469 6.69654 4.4539 7.10265 4.42854 7.70337C4.40317 8.30409 4.39472 8.49023 4.40318 10.0132C4.40318 11.5361 4.41163 11.7223 4.44545 12.323C4.47081 12.9152 4.57226 13.3298 4.70754 13.6852C4.85126 14.0574 5.04571 14.362 5.35853 14.6751C5.67134 14.9881 5.98415 15.1743 6.34769 15.3181C6.70278 15.4535 7.10859 15.5465 7.70886 15.5719C8.30912 15.5973 8.49512 15.6058 10.0169 15.5973C11.5387 15.5973 11.7247 15.5888 12.325 15.5635C12.9168 15.5381 13.331 15.4366 13.6861 15.3012C14.0581 15.1573 14.3625 14.9627 14.6753 14.6497C14.9881 14.3366 15.1741 14.0236 15.3178 13.6598C15.4531 13.3044 15.5461 12.8983 15.5715 12.2976C15.5968 11.6969 15.6053 11.5107 15.5968 9.98779C15.5968 8.46485 15.5884 8.27871 15.5546 7.67799C15.5292 7.07727 15.4277 6.67115 15.2925 6.3158C15.1488 5.94352 14.9543 5.63893 14.6415 5.32588C14.3287 5.01283 14.0159 4.8267 13.6523 4.68286C13.2972 4.54749 12.8914 4.45442 12.2912 4.42904C11.6909 4.40366 11.5049 4.3952 9.98309 4.40366C8.4613 4.40366 8.2753 4.41212 7.67504 4.44596M7.74267 14.5736C7.19314 14.5482 6.89723 14.4551 6.70278 14.379C6.44069 14.2774 6.25469 14.159 6.06024 13.9644C5.86579 13.7698 5.73897 13.5836 5.63752 13.3214C5.56143 13.1268 5.46843 12.8306 5.44307 12.2807C5.41771 11.6884 5.40925 11.5107 5.40925 10.0132C5.40925 8.51561 5.40925 8.33793 5.43462 7.74568C5.45998 7.19572 5.55298 6.8996 5.62907 6.705C5.73052 6.44271 5.84888 6.25657 6.04333 6.06198C6.23778 5.86738 6.42378 5.74046 6.68587 5.63893C6.88032 5.56279 7.17623 5.46972 7.72576 5.44434C8.31757 5.41895 8.49512 5.41049 9.99155 5.41049C11.488 5.41049 11.6655 5.41049 12.2573 5.43587C12.8069 5.46126 13.1028 5.54587 13.2972 5.63047C13.5593 5.732 13.7453 5.85045 13.9398 6.04505C14.1342 6.23965 14.261 6.42579 14.3625 6.68808C14.4386 6.88267 14.5316 7.1788 14.5569 7.72875C14.5823 8.32101 14.5908 8.49869 14.5908 9.99625C14.5908 11.4938 14.5908 11.6715 14.5654 12.2638C14.54 12.8137 14.447 13.1098 14.3709 13.3044C14.2695 13.5667 14.1511 13.7529 13.9567 13.9475C13.7622 14.1421 13.5762 14.269 13.3141 14.3705C13.1197 14.4466 12.8238 14.5397 12.2742 14.5651C11.6824 14.5905 11.5049 14.5989 10.0085 14.5989C8.51203 14.5989 8.33448 14.5989 7.74267 14.5736ZM12.3081 7.00959C12.3081 7.38186 12.6124 7.67799 12.9844 7.67799C13.3564 7.67799 13.6523 7.3734 13.6523 7.00112C13.6523 6.62885 13.348 6.33272 12.976 6.33272C12.604 6.33272 12.3081 6.63731 12.3081 7.00959ZM7.1255 10.0132C7.1255 11.6038 8.41903 12.8898 10.0085 12.8814C11.5979 12.8814 12.883 11.5869 12.8745 9.99625C12.8745 8.40562 11.581 7.11958 9.99155 7.12804C8.40212 7.12804 7.11705 8.42254 7.1255 10.0132ZM8.13158 10.0132C8.13158 8.98096 8.96011 8.14333 9.99155 8.14333C11.023 8.14333 11.86 8.97249 11.86 10.0047C11.86 11.0369 11.0314 11.8746 10 11.8746C8.96856 11.8746 8.13158 11.0454 8.13158 10.0132Z" fill="white"/>
</svg>
