<svg width="20" height="20" viewBox="0 0 20 20" fill="none" xmlns="http://www.w3.org/2000/svg">
<path d="M20 10C20 15.5228 15.5228 20 10 20C4.47715 20 0 15.5228 0 10C0 4.47715 4.47715 0 10 0C15.5228 0 20 4.47715 20 10Z" fill="#BBBBBB"/>
<path d="M15.0019 7.6352C15.0019 7.73994 15.0019 7.84469 15.0019 7.9575C15.0019 11.2288 12.5662 14.9997 8.11263 14.9997C6.79626 14.9997 5.51143 14.6129 4.4 13.8878C4.58918 13.9119 4.78625 13.92 4.97543 13.92C6.0632 13.92 7.12733 13.5494 7.97863 12.8564C6.94603 12.8403 6.03167 12.1474 5.71637 11.1402C6.07896 11.2127 6.44943 11.1966 6.81203 11.0999C5.68484 10.8662 4.87295 9.85099 4.87295 8.67461V8.64238C5.21189 8.83576 5.59025 8.9405 5.96861 8.94856C4.90448 8.22339 4.57342 6.77305 5.21978 5.64501C6.44944 7.19204 8.2624 8.13476 10.2094 8.23145C10.0123 7.3693 10.2803 6.47493 10.9109 5.87062C11.8883 4.93595 13.4175 4.9843 14.3398 5.97536C14.8836 5.86256 15.4039 5.66112 15.8768 5.37106C15.6955 5.94314 15.3172 6.42658 14.8127 6.74082C15.2935 6.68442 15.7586 6.5555 16.2 6.35406C15.8768 6.85363 15.4669 7.28067 14.994 7.6352H15.0019Z" fill="white"/>
</svg>
