<svg width="120" height="auto" viewBox="0 0 298 60" fill="none"
    xmlns="http://www.w3.org/2000/svg">
    <g clip-path="url(#clip0_273_2621)">
        <path fill-rule="evenodd" clip-rule="evenodd" d="M219.139 -0.0800781H175.759V59.4999H191.579V7.93992H209.519C213.799 7.93992 217.319 11.4399 217.319 15.7399V59.4999H233.139V13.8999C233.119 6.21992 226.819 -0.0800781 219.139 -0.0800781Z" fill="#0264FA" id="TechnoLogoPath" />
        <path fill-rule="evenodd" clip-rule="evenodd" d="M283.539 -0.0800781H254.139C246.459 -0.0800781 240.159 6.21992 240.159 13.8999V45.5199C240.159 53.1999 246.459 59.4999 254.139 59.4999H283.539C291.239 59.4999 297.519 53.1999 297.519 45.5199V13.8999C297.539 6.21992 291.239 -0.0800781 283.539 -0.0800781ZM273.919 7.93992C278.199 7.93992 281.719 11.4399 281.719 15.7399V43.6999C281.719 47.9799 278.219 51.4999 273.919 51.4999H263.779C259.499 51.4999 255.979 47.9999 255.979 43.6999V15.7399C255.979 11.4599 259.479 7.93992 263.779 7.93992H273.919Z" fill="#0264FA" id="TechnoLogoPath" />
        <path fill-rule="evenodd" clip-rule="evenodd" d="M77.9995 -0.0800781H112.839V7.93992H87.6195C83.3395 7.93992 79.8395 11.4399 79.8395 15.7399V17.2599C79.8395 21.5399 83.3395 25.0599 87.6195 25.0599H112.839V33.0799H79.8395V43.6999C79.8395 47.9799 83.3395 51.4999 87.6195 51.4999H112.839V59.5199H77.9995C70.3195 59.5199 64.0195 53.2199 64.0195 45.5399V13.8999C64.0195 6.21992 70.3195 -0.0800781 77.9995 -0.0800781Z" fill="#0264FA" id="TechnoLogoPath" />
        <path fill-rule="evenodd" clip-rule="evenodd" d="M133.879 -0.0800781H168.719V7.93992H143.499C139.219 7.93992 135.699 11.4399 135.699 15.7399V43.6999C135.699 47.9799 139.199 51.4999 143.499 51.4999H168.719V59.5199H133.879C126.179 59.5199 119.899 53.2199 119.899 45.5399V13.8999C119.899 6.21992 126.179 -0.0800781 133.879 -0.0800781Z" fill="#0264FA" id="TechnoLogoPath" />
        <path fill-rule="evenodd" clip-rule="evenodd" d="M56.9596 -0.0803223H-0.380371V7.93968H20.3996V59.4997H36.2196V15.7397C36.2196 11.4597 39.7196 7.95968 43.9996 7.93968H56.9996V-0.0803223H56.9596Z" fill="#0264FA" id="TechnoLogoPath" />
    </g>
    <defs>
        <clipPath id="clip0_273_2621">
            <rect width="298" height="60" fill="white" />
        </clipPath>
    </defs>
</svg>
