<svg width="20" height="20" viewBox="0 0 20 20" fill="none" xmlns="http://www.w3.org/2000/svg">
<path d="M20 10C20 15.5228 15.5228 20 10 20C4.47715 20 0 15.5228 0 10C0 4.47715 4.47715 0 10 0C15.5228 0 20 4.47715 20 10Z" fill="#BBBBBB"/>
<path fill-rule="evenodd" clip-rule="evenodd" d="M8.63472 16.4875V10.901H6.58068V8.5498H8.63472V6.75254C8.63472 4.70908 9.84513 3.57655 11.6913 3.57655C12.5716 3.57655 13.5008 3.73658 13.5008 3.73658V5.74312H12.4738C11.4712 5.74312 11.1534 6.37093 11.1534 7.01105V8.53749H13.403L13.0485 10.8887H11.1656V16.4875C10.7551 16.5622 10.3321 16.6013 9.90002 16.6013C9.46803 16.6013 9.04515 16.5623 8.63472 16.4875Z" fill="white"/>
</svg>
