<svg width="26" height="31" viewBox="0 0 26 31" fill="none" xmlns="http://www.w3.org/2000/svg">
<path d="M16.8411 15.2643C19.3201 7.89001 14.3532 3.08213 11.5443 1.59035C11.5378 1.58691 11.5305 1.59194 11.5305 1.59929C11.5231 4.91606 9.27939 7.56971 7.24048 9.29806C5.19823 11.0292 2 13.2246 2 19.2085C2 25.1923 7.24048 29.583 12.6222 29.583C18.004 29.583 21.7757 27.1419 23.3857 22.4171C24.9925 17.7013 23.1028 12.4718 21.6525 11.3501C21.6479 11.3465 21.6415 11.3482 21.6385 11.3532C19.831 14.3598 17.0826 15.2102 16.8509 15.2775C16.8434 15.2797 16.8386 15.2717 16.8411 15.2643Z" stroke="#0264f8" stroke-width="2.07294" stroke-linejoin="round"/>
</svg>
